<svg width="1200" height="1200" viewBox="0 0 1200 1200" fill="none" xmlns="http://www.w3.org/2000/svg">
<rect width="1200" height="1200" fill="#283618"/>
<path d="M293.016 677.84C298.349 666.34 307.893 643.84 312.016 643.84C316.516 643.84 338.421 660.927 337.516 663.34C336.016 667.34 327.5 687.358 320.016 694.84C314.359 700.496 292.32 679.34 293.016 677.84Z" fill="white"/>
<path d="M697 558.715C698.5 552.881 703.1 540.215 709.5 536.215C721.5 536.215 861 510.715 904.5 502.215C908.667 500.715 911 507.215 899 517.215C858 530.715 845 534.715 730 555.715C724.167 556.715 709.4 558.715 697 558.715Z" fill="white"/>
<path fill-rule="evenodd" clip-rule="evenodd" d="M694.585 662.046L698.589 659.025C698.767 657.691 698.342 655.675 697.671 654.146C698.96 657.085 697.147 660.113 694.585 662.046ZM669.203 660.576C666.767 661.162 664.639 661.525 663.089 661.525C661.775 663.379 660.617 665.078 659.579 666.644C661.73 663.4 665.419 661.486 669.203 660.576ZM812.594 587.681C813.591 587.226 814.506 586.672 815.421 586.068C814.939 586.386 814.494 586.705 814.089 587.025C813.646 587.21 813.146 587.429 812.594 587.681ZM740.082 631.592C739.048 632.518 737.956 633.464 736.57 633.543C737.278 633.502 737.958 633.34 738.589 633.025C739.011 632.582 739.511 632.103 740.082 631.592ZM732.645 632.777C728.212 631.015 727.052 625.578 729.206 621.32C727.768 624.163 726.647 626.942 726.088 628.525C727.494 629.837 730.005 631.728 732.645 632.777ZM605.502 646.144C598.958 646.113 595.43 638.672 596.725 632.257C596.052 635.592 594.327 639.903 590.089 646.025C595.889 646.083 600.998 646.123 605.502 646.144ZM593.859 624.775C593.835 624.795 593.81 624.817 593.784 624.839L593.782 624.841C593.643 624.96 593.475 625.103 593.343 625.196L593.588 625.025C593.676 624.937 593.767 624.854 593.859 624.775ZM452.563 657.548C451.921 657.533 451.25 657.463 450.619 657.342C450.94 657.404 451.263 657.465 451.588 657.525L452.563 657.548ZM557.589 679.525C559.131 677.469 555.792 676.266 553.547 677.518C555.166 676.615 556.524 675.775 557.589 675.025C558.089 675.858 558.789 677.925 557.589 679.525Z" fill="white"/>
<path fill-rule="evenodd" clip-rule="evenodd" d="M675.089 683.524C681.089 681.524 695.589 673.024 704.089 667.524C704.152 667.483 704.219 667.438 704.289 667.391C705.25 666.744 706.86 665.659 710.589 667.524C711.066 667.763 711.689 668.103 712.44 668.514C716.615 670.796 724.766 675.252 734.089 676.524C742.589 677.683 800.589 685.524 827.089 678.524C835.255 676.357 852.378 670.746 857.089 668.024C878.566 655.616 883.394 648.702 894.463 632.85C894.99 632.096 895.531 631.321 896.089 630.524C904.687 618.241 906.244 610.987 907.075 607.115L907.119 606.911C907.391 605.65 907.589 604.368 907.589 603.078V592.639C907.589 591.241 907.364 589.848 906.788 588.573C904.131 582.695 897.874 573.454 888.589 572.025C875.589 570.025 859.089 571.525 857.089 572.025C856.948 572.06 856.662 572.128 856.248 572.225L856.246 572.225C851.014 573.454 825.429 579.464 815.421 586.068C814.939 586.386 814.494 586.705 814.089 587.025C813.646 587.21 813.146 587.429 812.594 587.681C798.829 593.962 752.533 620.442 740.082 631.592C739.511 632.103 739.011 632.582 738.589 633.025C737.958 633.34 737.278 633.502 736.57 633.543C735.311 633.614 733.962 633.3 732.645 632.777C730.005 631.728 727.494 629.837 726.088 628.525C726.647 626.942 727.768 624.163 729.206 621.32C730.342 619.075 731.676 616.79 733.088 615.025C735.267 612.301 736.333 607.414 736.792 603.362C737.109 600.56 735.751 598.184 733 598.802C731.86 599.058 730.234 600.037 729.512 600.955C720.262 612.71 703.528 621.141 677.088 624.025C653.642 626.583 647.643 634.592 643.594 639.997L643.593 639.998C642.894 640.932 642.252 641.788 641.589 642.525C641.451 642.679 641.324 642.827 641.201 642.969C639.064 645.455 638.338 646.3 605.502 646.144C600.998 646.123 595.889 646.083 590.089 646.025C594.327 639.903 596.052 635.592 596.725 632.257C597.13 630.252 597.155 628.6 597.118 627.119C597.069 625.176 595.354 623.509 593.871 624.765L593.859 624.775C593.767 624.854 593.676 624.937 593.588 625.025L593.343 625.196L593.34 625.198C547.709 656.869 515.802 659.001 452.568 657.548L452.563 657.548L451.588 657.525C451.263 657.465 450.94 657.404 450.619 657.342C404.302 648.496 398.088 631.977 398.088 625.025C398.088 623.963 400.704 622.27 404.058 620.099C408.601 617.158 414.5 613.34 417.088 609.025C419.625 604.797 425.856 594.015 429.131 586.05C429.943 584.074 428.442 582.025 426.305 582.025C425.521 582.025 424.77 582.31 424.181 582.827C421.16 585.476 416.844 589.079 412.487 592.716C405.091 598.89 397.579 605.162 396.088 607.025C392.088 612.025 381.422 633.525 375.588 647.025C372.755 654.192 371.589 673.025 391.088 684.025C412.089 699.525 471.089 701.025 504.088 694.525C525.394 690.329 544.01 682.833 553.547 677.518C555.166 676.615 556.524 675.775 557.589 675.025C558.089 675.858 558.789 677.925 557.589 679.525C556.518 680.953 557.996 681.616 560.202 682.607C561.086 683.004 562.088 683.453 563.089 684.025C564.941 685.084 588.409 684.742 612.623 684.389C623.041 684.237 633.596 684.084 642.628 684.038C645.812 684.022 648.924 682.81 650.809 680.245C652.174 678.387 653.46 676.315 655.017 673.808C656.292 671.753 657.749 669.405 659.579 666.644C660.617 665.078 661.775 663.379 663.089 661.525C664.639 661.525 666.767 661.162 669.203 660.576C675.202 659.135 683.066 656.346 688.767 654.325C691.946 653.198 694.453 652.309 695.589 652.025C696.312 651.844 697.086 652.81 697.671 654.146C698.342 655.675 698.767 657.691 698.589 659.025L694.585 662.046L673.797 677.734C672.667 678.587 671.617 679.602 671.107 680.922C670.301 683.01 670.538 685.041 675.089 683.524ZM885.588 623.025C861.988 647.025 790.755 644.692 758.088 640.525C768.428 632.1 793.432 621.329 807.717 615.175C812.084 613.294 815.266 612.091 817 611.5C824.5 609 840.396 601.832 857.089 603.362C869.5 604.5 880.588 612.025 885.588 623.025Z" fill="white"/>
<path d="M474.615 590.867C473.4 589.763 473.307 588.243 473.923 586.721C478.391 575.684 486.519 557.014 489.5 555.524C493.5 553.524 497 557.524 500 559.024C502.53 560.289 516 569.024 519 569.024C522 569.024 531 548.514 534 548.014C537 547.515 561.921 560.062 562.5 563.524C563 566.514 549.275 595.646 545.5 597.524C541.5 599.514 520.645 579.663 518.5 581.024C513 584.514 504.594 605.631 500 606.014C495.011 606.43 479.648 595.442 474.615 590.867Z" fill="white"/>
</svg>
